<?xml version="1.0" encoding="utf-8"?>
<!-- Designed by Vexels.com - 2020 All Rights Reserved - https://vexels.com/terms-and-conditions/  -->
<svg version="1.1" id="Layer_1" xmlns="http://www.w3.org/2000/svg" xmlns:xlink="http://www.w3.org/1999/xlink" x="0px" y="0px"
	 viewBox="0 0 1200 1200" enable-background="new 0 0 1200 1200" xml:space="preserve">
<g>
	<path fill="#31353E" d="M503.386,167.96c-2.524,7.531-3.976,15.421-4.3,23.357c-0.031,0.759,0.089,1.727,0.818,1.943
		c0.485,0.143,0.981-0.148,1.403-0.426c1.211-0.8,2.422-1.6,3.633-2.4c-0.859,1.802-1.739,3.709-1.591,5.7
		c0.148,1.991,1.734,4.025,3.727,3.907c0.745-0.044,1.443-0.374,2.092-0.743c1.512-0.86,2.883-1.967,4.042-3.264
		c0.209-0.234,0.42-0.481,0.705-0.611c1.004-0.459,1.923,0.711,2.609,1.575c1.731,2.181,4.803,3.198,7.494,2.481
		c2.691-0.718,4.849-3.129,5.264-5.883c0.311-2.062-0.285-4.155-1.066-6.089c-2.766-6.852-7.866-12.551-13.634-17.169
		c-1.518-1.215-3.867-2.327-5.202-0.914"/>
	<path fill="#EB545D" d="M497.529,167.708c-6.191-0.986-10.883-5.986-14.737-10.93c-6.377-8.179-12.029-17.414-13.277-27.71
		c-0.475-3.918-0.297-7.892,0.192-11.809c2.754-22.092,15.893-42.664,34.778-54.453c15.607-9.743,34.481-13.459,52.865-12.715
		c3.711,0.15,7.435,0.477,11.037,1.382c6.075,1.526,11.613,4.641,17.049,7.754c1.563,0.895,3.193,1.86,4.104,3.413
		c1.693,2.885,0.169,6.778-2.439,8.872s-6.001,2.864-9.239,3.7c-15.365,3.97-29.966,10.768-43.076,19.711
		c-6.468,4.412-13.17,10.511-13.034,18.339c0.07,4.048,2.009,7.787,3.5,11.551c4.425,11.168,5.078,23.416,5.68,35.413
		c0.12,2.393-0.05,5.322-2.182,6.414c-0.755,0.387-1.629,0.451-2.476,0.508c-5.201,0.35-10.402,0.7-15.602,1.049"/>
	<ellipse fill="#D3E4ED" cx="559.437" cy="1062.116" rx="221.207" ry="87.884"/>
	<path fill="#31353E" d="M602.649,1003.214c-0.006,1.603,0.096,3.409,1.498,4.481c0.888,0.679,2.118,0.908,3.289,1.107
		c23.421,3.985,47.335,5.875,71.22,5.626c0.803-0.008,1.635-0.025,2.36-0.319c2.019-0.819,2.1-3.428,0.731-4.931
		c-1.369-1.503-3.61-2.186-5.708-2.845c-13.011-4.089-25.193-10.071-35.857-17.606c-7.026-4.965-21.061-17.74-31.716-13.18
		C599.1,979.556,602.678,995.929,602.649,1003.214z"/>
	<path fill="#31353E" d="M445.798,1112.553c-1.479,4.291-2.813,9.337,0.376,12.895c1.465,1.634,3.692,2.661,5.981,3.324
		c4.659,1.349,9.844,1.346,14.501-0.008c4.045-1.177,7.616-3.315,10.815-5.724c14.156-10.663,21.602-27.411,19.276-43.358
		c-0.431-2.957-1.245-6.008-3.475-8.308c-6.938-7.156-25.032-6.402-31.856,0.354
		C451.874,1081.174,449.834,1100.837,445.798,1112.553z"/>
	<path fill="#EB545D" d="M503.318,508.303c-14.109,50.108-24.084,101.168-26.911,152.633c-1.423,25.909-1.035,51.903-3.824,77.733
		c-3.508,32.496-12.015,64.479-15.895,96.944c-6.325,52.914-0.507,107.655-20.181,158.15c-4.289,11.007-9.837,22.15-8.77,33.708
		c1.139,12.343,9.646,23.202,18.092,33.293c4.739,5.662,9.804,11.479,17.047,14.708c15.238,6.795,34.947-0.764,44.736-12.785
		c9.788-12.021,12.155-27.164,14.247-41.671c4.877-33.822,9.754-67.645,14.632-101.467c8.625-59.815,17.251-119.63,25.876-179.445
		c3.366-23.344,6.732-46.687,10.098-70.031c0.505-3.505,4.46-8.797,5.921-12.103c8.718,61.216,14.575,125.925,5.192,187.07
		c-3.051,19.885-8.018,39.863-5.587,59.81c1.455,11.942,5.533,23.525,9.591,35.026c5.124,14.522,10.248,29.044,15.371,43.565
		c0.706,2.001,1.456,4.07,3.086,5.635c2.244,2.154,5.818,2.986,9.205,3.007c10.08,0.06,19.027-6.193,23.781-13.742
		c4.754-7.548,6.114-16.255,7.357-24.75c3.536-24.168,6.759-48.384,8.473-72.694c1.072-15.204,1.553-30.445,1.071-45.671
		c-0.99-31.234-6.025-62.583-1.648-93.606c8.27-58.621,7.764-116.995,7.444-176.035c-0.128-23.677-0.262-47.424-3.764-70.914
		c-0.711-4.768-1.828-9.952-6.123-13.082c-2.624-1.912-6.072-2.761-9.426-3.477C595.352,468.08,544.358,486.33,503.318,508.303z"/>
	<path fill="#31353E" d="M785.487,308.428c18.19-9.983,18.875-21.257,27.433-34.094c2.49-3.735,2.628-9.023,6.363-7.816
		c1.422,0.46,2.594,8.35-0.671,17.401c5.824-4.453,16.02-14.717,22.357-18.372c1.481-0.854,3.158,0.774,2.348,2.28l-6.89,12.807
		c5.198-2.604,10.731-4.535,16.419-5.738c1.694-0.358,2.901,1.632,1.773,2.945c-3.467,4.037-7.237,7.814-11.269,11.286
		c5.593-0.343,11.17-0.959,16.703-1.845c1.359-0.218,2.281,1.421,1.321,2.408c-0.557,0.573-1.279,1.067-1.953,1.431
		c-4.268,2.303-12.172,6.113-16.44,8.416c4.106,1.194,10.901-0.084,14.217,0.317c1.697,0.205,1.797,2.759,0.323,3.626
		c-5.456,3.209-12.421,3.747-18.667,5.531c-11.091,3.169-20.407,10.583-30.747,15.696c-4.033,1.994-8.316,3.662-12.803,4.005
		c-4.486,0.343-9.229-0.771-12.58-3.774"/>
	<path fill="#EB545D" d="M631.946,235.99c18.246,27.918,38.894,54.266,61.639,78.659c7.753,8.314,16.965,16.959,28.329,17.236
		c9.163,0.223,17.423-5.11,25.02-10.239c6.662-4.497,13.324-8.995,19.985-13.492c4.72-3.187,9.969-6.515,15.633-5.927
		c7.996,0.829,12.969,8.828,16.706,15.946c3.002,5.719,6.098,12.064,4.682,18.366c-1.505,6.703-7.61,11.208-13.276,15.091
		c-10.793,7.396-21.586,14.793-32.379,22.189c-8.604,5.896-17.518,11.926-27.745,13.975c-19.95,3.997-39.292-7.824-56.216-19.119
		c-8.44-5.633-16.879-11.265-25.319-16.898c-6.603-4.407-13.392-8.999-17.707-15.662c-3.913-6.042-5.455-13.286-6.606-20.392
		c-2.995-18.488-3.844-37.323-2.523-56.005"/>
	<path fill="none" d="M503.179,489.677c-0.568-23.047-6.515-45.916-12.437-68.34c-4.715-17.854-6.562-36.974-11.277-54.829
		c-12.295,15.351-24.492,30.78-36.591,46.286c-1.492,1.912-3.059,4.051-2.953,6.474c0.095,2.18,1.529,4.041,2.899,5.741
		c8.07,10.009,16.14,20.018,24.21,30.027c4.057,5.032,8.19,10.136,13.502,13.818c4.853,3.364,10.751,5.613,14.154,10.439
		c1.466,2.079,2.312,4.476,2.661,6.979l1.435-0.028C500.248,487.389,501.714,488.533,503.179,489.677z"/>
	<path fill="#31353E" d="M527.975,511.668c-0.737-3.093-3.401-5.287-5.907-7.243c-6.296-4.916-12.593-9.832-18.889-14.748
		c-1.466-1.144-2.931-2.288-4.397-3.433l-1.435,0.028c0.497,3.564-0.023,7.344-1.272,10.743
		c-2.126,5.785-6.068,10.697-10.018,15.429c-0.418,0.501-0.851,1.006-1.296,1.507c1.279,4.883,1.448,10.37,5.123,13.716
		c1.442,1.313,3.51,2.529,3.403,4.476c-0.086,1.558-1.585,2.622-2.265,4.026c-0.905,1.868-0.226,4.192,1.112,5.778
		c1.337,1.586,3.219,2.593,5.053,3.563c1.715,0.906,3.512,1.835,5.451,1.869c1.789,0.032,3.494-0.705,5.102-1.49
		c4.144-2.025,8.185-4.569,10.899-8.299c3.191-4.387,4.227-9.936,6.421-14.897c0.464-1.049,0.986-2.112,1.469-3.186
		C527.682,516.949,528.608,514.326,527.975,511.668z"/>
	<path fill="#EB545D" d="M663.362,424.712c-2.106-18.78-7.057-37.304-6.994-56.202c0.118-35.088-5.248-69.486-10.896-104.116
		c-1.178-7.225-2.572-14.573-6.142-20.964c-4.841-8.666-13.338-14.826-22.482-18.689s-19.004-5.66-28.771-7.43
		c-14.722-2.668-31.016-5.064-43.722,2.835l-12.989-2.881c-11.315,6.269-22.631,12.537-33.946,18.805
		c-15.101,8.365-30.626,17.085-41.262,30.683c-6.375,8.15-10.687,17.687-14.939,27.12c-15.323,34.003-30.646,68.006-45.968,102.01
		c-7.034,15.609-14.118,33.624-7.1,49.241c2.873,6.392,7.842,11.572,12.813,16.512c20.061,19.938,41.729,38.258,64.725,54.725
		c2.493,1.785,5.184,3.614,8.246,3.767c4.313,0.216,7.878-2.862,10.828-6.175c0.446-0.501,0.878-1.006,1.296-1.507
		c3.95-4.732,7.892-9.644,10.018-15.429c1.249-3.399,1.768-7.179,1.272-10.743c-0.349-2.503-1.195-4.9-2.661-6.979
		c-3.403-4.827-9.301-7.076-14.154-10.439c-5.312-3.682-9.446-8.786-13.502-13.818c-8.07-10.009-16.14-20.019-24.21-30.028
		c-1.37-1.699-2.804-3.561-2.899-5.741c-0.106-2.423,1.461-4.562,2.953-6.474c12.099-15.506,24.296-30.935,36.591-46.286
		c4.715,17.855,6.562,36.974,11.277,54.829c5.921,22.424,11.869,45.293,12.437,68.34c6.296,4.916,12.592,9.832,18.889,14.748
		c2.506,1.956,5.17,4.151,5.907,7.243c0.633,2.658-0.293,5.281-1.444,7.839c12.254,1.799,24.993,0.965,37.3-0.967
		c17.68-2.776,34.99-7.704,52.743-9.969c13.466-1.719,28.692-2.641,37.565-12.914c5.234-6.059,7.112-14.272,8.304-22.19
		C664.869,457.347,665.179,440.911,663.362,424.712z"/>
	<path fill="#F29681" d="M594.916,108.761c0.905,9.59,5.157,18.716,5.323,28.347c0.094,5.425-1.118,10.778-2.324,16.069
		c-3.201,14.052-6.402,28.104-9.603,42.156c-0.539,2.367-1.12,4.822-2.636,6.718c-2.682,3.353-7.431,4.026-11.704,4.451
		c-0.13,11.394-0.26,22.788-0.39,34.182c-0.036,3.192-0.148,6.619-2.045,9.186c-2.423,3.279-7.009,4.101-11.076,3.802
		c-6.972-0.512-13.51-3.497-19.669-6.804c-4.1-2.201-8.222-4.662-11.027-8.375c-8.267-10.941-1.825-26.773-4.885-40.141
		c-1.578-6.896-5.665-12.911-9.669-18.743c-5.48,1.715-11.711-0.325-15.822-4.334c-4.111-4.009-6.271-9.708-6.873-15.418
		c-0.498-4.723,0.098-9.81,2.991-13.576c2.893-3.766,8.536-5.644,12.621-3.222c4.557-6.3-3.3-15.659,0.124-22.64
		c3.09,3.574,7.62,5.865,12.329,6.236c-2.837-10.948-2.331-22.738,1.432-33.403c1.6-4.532,3.874-8.992,7.572-12.063
		c9.547-7.927,32.267-12.669,44.686-9.636C591.46,75.75,593.555,94.337,594.916,108.761z"/>
	<g>
		<path fill="#31353E" d="M630.573,611.699c0.083,0.362,0.012,0.754-0.201,1.165c-0.212,0.42-0.574,0.822-1.06,1.299
			c-0.49,0.463-1.112,0.959-1.862,1.517c-0.751,0.558-1.629,1.182-2.642,1.892c-2.023,1.438-4.568,3.267-7.742,5.761
			c-1.616,1.272-3.381,2.661-5.301,4.172c-1.971,1.516-4.101,3.154-6.395,4.918c-4.588,3.492-8.459,6.51-11.661,9.146
			c-1.595,1.322-3.03,2.539-4.306,3.657c-1.278,1.117-2.395,2.137-3.386,3.038c-0.967,0.919-1.84,1.694-2.547,2.383
			c-0.731,0.673-1.333,1.229-1.814,1.672c-0.976,0.876-1.544,1.234-1.748,1.087c-0.204-0.148-0.026-0.788,0.552-1.994
			c0.281-0.609,0.7-1.33,1.213-2.206c0.506-0.884,1.174-1.868,1.938-3.019c0.786-1.131,1.7-2.403,2.777-3.791
			c1.076-1.388,2.313-2.894,3.717-4.517c2.817-3.232,6.333-6.903,10.595-10.935c2.13-2.016,4.133-3.844,6.001-5.504
			c1.872-1.664,3.666-3.189,5.4-4.52c3.454-2.678,6.718-4.531,9.492-5.57c1.392-0.516,2.649-0.846,3.746-1.016
			c1.098-0.171,2.03-0.186,2.784-0.099c0.749,0.075,1.333,0.292,1.732,0.536C630.258,611.023,630.49,611.337,630.573,611.699z"/>
	</g>
	<g>
		<path fill="#31353E" d="M618.369,645.657c0.129,0.496-0.714,1.168-2.649,2.072c-1.934,0.912-4.962,2.049-9.175,3.689
			c-4.206,1.657-7.202,2.879-9.24,3.523c-2.034,0.651-3.109,0.73-3.351,0.278c-0.235-0.437,0.413-1.324,2.198-2.589
			c1.785-1.256,4.713-2.9,9.062-4.613c4.356-1.696,7.622-2.477,9.785-2.768C617.166,644.966,618.244,645.177,618.369,645.657z"/>
	</g>
	<g>
		<path fill="#31353E" d="M463.096,907.209c0.124-0.02,0.294,0.151,0.502,0.471c0.228,0.312,0.544,0.764,1.1,1.187
			c0.545,0.429,1.334,0.822,2.399,1.07c1.069,0.235,2.403,0.345,3.941,0.208c1.475-0.098,3.356-0.611,5.402-1.002
			c1.024-0.206,2.083-0.555,3.201-0.842c0.557-0.158,1.131-0.293,1.709-0.477c0.574-0.196,1.162-0.397,1.764-0.602
			c0.599-0.202,1.212-0.409,1.838-0.621c0.624-0.215,1.244-0.499,1.884-0.751c1.28-0.514,2.611-1.036,3.945-1.713
			c0.672-0.317,1.357-0.641,2.056-0.971c0.689-0.349,1.373-0.747,2.079-1.124c0.699-0.393,1.429-0.749,2.137-1.182
			c0.704-0.436,1.421-0.88,2.151-1.333c0.365-0.223,0.726-0.445,1.084-0.664c0.345-0.24,0.687-0.479,1.026-0.715
			c0.677-0.468,1.341-0.928,1.993-1.379c1.29-0.918,2.464-1.892,3.636-2.756c1.115-0.936,2.185-1.835,3.211-2.697
			c0.987-0.901,1.931-1.763,2.833-2.587c1.74-1.709,3.365-3.217,4.728-4.679c1.443-1.394,2.621-2.729,3.775-3.838
			c0.592-0.544,1.095-1.089,1.594-1.58c0.499-0.49,0.983-0.933,1.451-1.33c0.966-0.776,1.721-1.458,2.491-1.913
			c1.507-0.93,2.774-1.139,3.693-0.649c0.919,0.49,1.4,1.639,1.271,3.537c-0.08,0.938-0.239,2.11-0.724,3.371
			c-0.228,0.64-0.502,1.326-0.824,2.057c-0.32,0.732-0.678,1.516-1.158,2.291c-0.929,1.572-2.022,3.354-3.517,5.139
			c-1.417,1.856-3.233,3.702-5.29,5.664c-1.072,0.934-2.193,1.914-3.396,2.894c-1.25,0.922-2.549,1.889-3.934,2.845
			c-1.436,0.884-2.896,1.849-4.486,2.724c-0.803,0.422-1.622,0.852-2.456,1.29c-0.417,0.215-0.838,0.432-1.264,0.651
			c-0.438,0.194-0.88,0.39-1.326,0.588c-0.891,0.389-1.766,0.772-2.625,1.148c-0.861,0.366-1.742,0.649-2.585,0.963
			c-0.851,0.299-1.674,0.614-2.498,0.875c-0.832,0.238-1.649,0.471-2.449,0.699c-1.585,0.488-3.149,0.808-4.641,1.113
			c-0.747,0.147-1.466,0.325-2.187,0.432c-0.721,0.1-1.425,0.199-2.114,0.295c-0.685,0.093-1.355,0.183-2.01,0.272
			c-0.655,0.074-1.303,0.098-1.928,0.146c-1.256,0.066-2.433,0.195-3.562,0.186c-1.124-0.009-2.186-0.018-3.189-0.026
			c-0.962,0.009-2.032-0.07-2.943-0.208c-1.856-0.269-3.433-0.792-4.692-1.456c-1.258-0.675-2.172-1.536-2.675-2.357
			c-0.517-0.817-0.635-1.532-0.64-1.976C462.896,907.439,462.973,907.229,463.096,907.209z"/>
	</g>
	<g>
		<path fill="#31353E" d="M491.528,878.468c-0.022,0.251-0.271,0.462-0.789,0.616c-0.259,0.074-0.587,0.146-0.983,0.18
			c-0.393,0.018-0.856,0.015-1.393-0.014c-0.533-0.043-1.129-0.152-1.802-0.277c-0.651-0.187-1.402-0.347-2.17-0.674
			c-1.561-0.589-3.345-1.513-5.158-2.956c-1.814-1.441-3.117-2.972-4.042-4.361c-0.491-0.675-0.816-1.371-1.145-1.963
			c-0.274-0.628-0.514-1.184-0.676-1.693c-0.149-0.517-0.256-0.968-0.327-1.354c-0.057-0.393-0.06-0.729-0.046-0.998
			c0.034-0.54,0.183-0.83,0.422-0.908c0.24-0.078,0.548,0.063,0.913,0.419c0.185,0.177,0.373,0.413,0.594,0.696
			c0.235,0.277,0.488,0.607,0.755,0.992c0.282,0.379,0.616,0.794,0.953,1.274c0.393,0.446,0.751,0.986,1.243,1.509
			c0.926,1.083,2.092,2.307,3.629,3.529c1.536,1.222,2.993,2.082,4.256,2.741c0.62,0.362,1.227,0.589,1.75,0.872
			c0.543,0.22,1.024,0.453,1.456,0.642c0.436,0.174,0.814,0.345,1.137,0.512c0.325,0.152,0.597,0.282,0.811,0.422
			C491.343,877.949,491.549,878.217,491.528,878.468z"/>
	</g>
	<g>
		<path fill="#31353E" d="M635.919,898.922c-0.142,0.465-2.208,0.365-6.437-0.788c-4.211-1.174-10.625-3.4-18.945-7.87
			c-4.157-2.235-7.575-4.412-10.37-6.367c-2.799-1.895-5.099-3.877-6.437-5.842c-1.385-1.96-1.767-3.865-1.663-5.025
			c0.119-1.182,0.508-1.65,0.725-1.616c0.614,0.049,0.237,2.174,2.952,5.023c1.358,1.441,3.404,2.924,6.277,4.65
			c2.827,1.755,6.203,3.786,10.249,5.961c8.094,4.349,14.17,6.885,18.085,8.654C634.281,897.45,636.072,898.423,635.919,898.922z"/>
	</g>
	<g>
		<path fill="#31353E" d="M510.573,309.196c1.294,0.337,2.364,1.238,3.051,2.764c0.341,0.762,0.599,1.684,0.722,2.758
			c0.108,1.07,0.098,2.299-0.042,3.688c-0.155,1.383-0.485,2.912-0.94,4.603c-0.524,1.664-1.121,3.514-2.012,5.454
			c-0.841,1.961-1.927,4.03-3.179,6.232c-0.653,1.088-1.345,2.21-2.076,3.366c-0.764,1.138-1.572,2.307-2.414,3.509
			c-0.888,1.17-1.744,2.299-2.57,3.386c-0.869,1.049-1.705,2.058-2.509,3.028c-1.665,1.891-3.217,3.594-4.714,5.081
			c-1.453,1.519-2.893,2.789-4.129,3.966c-1.295,1.131-2.433,2.138-3.466,2.992c-1.048,0.831-1.955,1.551-2.728,2.164
			c-0.787,0.591-1.459,1.052-1.996,1.412c-1.079,0.714-1.661,0.987-1.843,0.813c-0.182-0.174,0.052-0.782,0.672-1.901
			c0.638-1.097,1.6-2.749,2.916-5.009c0.629-1.133,1.341-2.418,2.141-3.86c0.74-1.476,1.627-3.05,2.475-4.859
			c0.894-1.776,1.789-3.754,2.763-5.877c0.465-1.07,0.949-2.183,1.452-3.339c0.478-1.159,0.973-2.362,1.487-3.61
			c0.489-1.249,0.961-2.453,1.416-3.614c0.428-1.169,0.85-2.284,1.268-3.346c0.783-2.15,1.547-4.095,2.231-5.881
			c0.735-1.765,1.339-3.388,2.039-4.797c0.63-1.435,1.302-2.679,1.955-3.764c0.637-1.09,1.3-2.007,1.979-2.761
			c0.663-0.758,1.324-1.359,2.006-1.799C507.887,309.114,509.279,308.859,510.573,309.196z"/>
	</g>
	<g>
		<path fill="#31353E" d="M518.575,355.858c0.051,0.519-1.196,1.06-3.884,1.785c-2.684,0.742-6.821,1.656-12.48,3.38
			c-5.646,1.763-9.579,3.339-12.215,4.238c-2.629,0.915-3.964,1.171-4.214,0.713c-0.234-0.426,0.67-1.489,3.088-3.037
			c2.419-1.528,6.37-3.564,12.264-5.404c5.906-1.8,10.318-2.345,13.177-2.445C517.182,355.005,518.528,355.374,518.575,355.858z"/>
	</g>
	<g>
		<path fill="#31353E" d="M507.09,377.089c-0.222,0.46-0.771,0.686-1.651,0.679c-0.884-0.002-2.096-0.243-3.772-0.601
			c-1.68-0.344-2.886-0.609-3.697-0.961c-0.808-0.346-1.222-0.773-1.241-1.284c-0.019-0.497,0.371-0.985,1.299-1.298
			c0.921-0.306,2.4-0.439,4.386-0.032c1.983,0.423,3.284,1.137,4.006,1.787C507.145,376.038,507.306,376.641,507.09,377.089z"/>
	</g>
	<g>
		<path fill="#31353E" d="M648.184,275.378c0.563-0.237,1.413,0.207,2.429,1.517c1.016,1.305,2.179,3.495,3.21,6.653
			c1.025,3.153,1.866,7.266,2.418,12.245c0.543,4.965,0.948,10.809,1.167,17.669c0.218,6.853,0.181,12.731,0.052,17.687
			c-0.131,4.956-0.363,8.991-0.608,12.167c-0.508,6.352-1.039,9.27-1.531,9.264c-0.51-0.005-0.918-2.936-1.5-9.242
			c-0.59-6.306-1.364-15.987-2.722-29.461c-0.68-6.724-1.264-12.49-1.756-17.356c-0.468-4.822-0.911-8.65-1.285-11.671
			c-0.382-3.013-0.657-5.232-0.681-6.786C647.356,276.513,647.602,275.622,648.184,275.378z"/>
	</g>
	<g>
		<path fill="#31353E" d="M711.083,356.629c-0.476,0.106-1.096-0.401-1.61-1.767c-0.497-1.353-0.893-3.605-0.448-6.69
			c0.48-3.08,1.52-5.116,2.393-6.264c0.892-1.154,1.634-1.458,2.057-1.216c0.452,0.256,0.518,0.997,0.297,2.278
			c-0.21,1.287-0.725,3.123-1.135,5.744c-0.377,2.626-0.424,4.533-0.601,5.824C711.87,355.828,711.589,356.517,711.083,356.629z"/>
	</g>
	<g>
		<path fill="#31353E" d="M719.865,350.096c-0.414,0.276-0.955,0.319-1.549-0.075c-0.583-0.388-1.228-1.237-1.551-2.615
			c-0.308-1.382-0.096-2.426,0.26-3.03c0.363-0.613,0.869-0.809,1.361-0.741c0.505,0.07,0.912,0.375,1.218,0.861
			c0.311,0.491,0.514,1.161,0.721,2.094c0.219,0.93,0.328,1.622,0.262,2.199C720.522,349.362,720.289,349.813,719.865,350.096z"/>
	</g>
	<g>
		<path fill="#31353E" d="M416.802,421.743c-0.34-0.345-0.528-0.793-0.48-1.37c0.025-0.285,0.102-0.613,0.26-0.951
			c0.168-0.325,0.406-0.675,0.721-1.047c0.323-0.357,0.742-0.696,1.235-1.059c0.515-0.3,1.094-0.671,1.789-0.903
			c0.683-0.279,1.464-0.463,2.317-0.614c0.43-0.05,0.877-0.094,1.341-0.13c0.466-0.004,0.948,0.004,1.445,0.019
			c0.497,0.052,0.973,0.11,1.427,0.174c0.448,0.104,0.879,0.203,1.294,0.299c0.814,0.254,1.542,0.519,2.173,0.855
			c0.642,0.289,1.167,0.692,1.64,1.001c0.449,0.372,0.836,0.699,1.142,1.028c0.298,0.343,0.537,0.65,0.721,0.921
			c0.175,0.285,0.287,0.548,0.361,0.765c0.146,0.438,0.114,0.728-0.06,0.91c-0.174,0.182-0.477,0.239-0.896,0.193
			c-0.211-0.021-0.443-0.078-0.716-0.143c-0.284-0.052-0.596-0.124-0.935-0.219c-0.342-0.075-0.727-0.159-1.159-0.253
			c-0.445-0.045-0.888-0.171-1.411-0.197c-0.505-0.07-1.065-0.079-1.653-0.103c-0.295,0.006-0.602,0.013-0.92,0.02
			c-0.318,0.032-0.643,0.062-0.978,0.082c-0.334,0.057-0.653,0.102-0.958,0.14c-0.302,0.07-0.591,0.128-0.87,0.176
			c-0.546,0.144-1.049,0.249-1.497,0.388c-0.467,0.096-0.85,0.265-1.248,0.331c-0.363,0.123-0.724,0.188-1.051,0.249
			c-0.317,0.074-0.625,0.109-0.922,0.113c-0.286,0.016-0.548,0.013-0.806-0.031C417.597,422.301,417.141,422.088,416.802,421.743z"
			/>
	</g>
	<g>
		<path fill="#31353E" d="M426.105,407.787c0.401-0.317,0.977-0.3,1.728,0.038c0.758,0.335,1.684,0.995,2.963,1.918
			c1.288,0.91,2.213,1.571,2.776,2.178c0.563,0.601,0.767,1.14,0.598,1.622c-0.164,0.469-0.684,0.79-1.622,0.749
			c-0.927-0.045-2.292-0.458-3.874-1.577c-1.572-1.133-2.406-2.289-2.75-3.151C425.581,408.691,425.715,408.095,426.105,407.787z"/>
	</g>
	<g>
		<path fill="#31353E" d="M588.165,245.689c0.243-0.006,0.532,0.777,0.691,2.456c0.148,1.674,0.168,4.262-0.481,7.736
			c-0.34,1.73-0.809,3.681-1.692,5.834c-0.885,2.118-2.253,4.532-4.607,6.444c-2.31,1.927-5.391,3.179-8.713,3.746
			c-3.332,0.587-6.947,0.545-10.686,0.143c-7.539-0.798-13.778-2.893-18.706-5.221c-4.931-2.366-8.626-4.852-11.289-7.236
			c-2.658-2.392-4.086-4.723-4.698-6.337c-0.612-1.631-0.565-2.495-0.347-2.562c0.259-0.086,0.675,0.61,1.596,1.884
			c0.929,1.268,2.465,3.077,5.092,5.023c2.619,1.927,6.31,4.099,11.031,6.161c4.731,2.035,10.622,3.905,17.702,4.655
			c3.551,0.383,6.816,0.425,9.714-0.04c2.893-0.451,5.373-1.426,7.204-2.847c1.85-1.387,3.053-3.243,3.945-5.056
			c0.883-1.821,1.472-3.613,1.943-5.192c0.919-3.173,1.287-5.593,1.573-7.191C587.711,246.488,587.905,245.695,588.165,245.689z"/>
	</g>
	<g>
		<path fill="#31353E" d="M573.434,160.988c-0.043-0.514,1.462-1.051,4.687-1.817c0.806-0.189,1.719-0.404,2.743-0.645
			c0.511-0.12,1.049-0.247,1.617-0.38c0.542-0.134,1.22-0.282,1.707-0.424c0.51-0.153,0.691-0.308,0.73-0.413
			c0.084-0.122,0.174-0.479,0.11-0.889c-0.046-0.364-0.271-0.904-0.646-1.501c-0.452-0.694-0.921-1.413-1.408-2.159
			c-3.952-6.416-5.12-11.802-5.512-15.204c-0.361-3.448,0.074-5.06,0.542-5.097c0.535-0.049,1.017,1.46,1.988,4.576
			c1.001,3.089,2.453,7.901,6.08,13.789c0.458,0.735,0.909,1.384,1.42,2.215c0.488,0.828,0.961,1.784,1.091,2.966
			c0.111,1.118-0.08,2.325-0.847,3.359c-0.373,0.512-0.907,0.92-1.39,1.16c-0.49,0.248-0.937,0.37-1.327,0.459
			c-0.779,0.162-1.327,0.225-1.946,0.319c-0.597,0.083-1.165,0.153-1.705,0.21c-1.079,0.115-2.043,0.184-2.895,0.217
			C575.063,161.853,573.474,161.478,573.434,160.988z"/>
	</g>
	<g>
		<path fill="#31353E" d="M550.617,137.319c-0.242,0.033-0.52-0.095-0.74-0.489c-0.216-0.387-0.375-1.064-0.211-1.952
			c0.161-0.882,0.643-1.974,1.7-2.949c1.059-0.977,2.64-1.674,4.448-1.811c1.782-0.139,3.346,0.222,4.536,0.812
			c1.19,0.587,2.028,1.398,2.491,2.17c0.465,0.782,0.56,1.474,0.486,1.915c-0.081,0.449-0.287,0.66-0.53,0.712
			c-0.519,0.103-1.004-0.407-1.886-0.91c-0.878-0.485-2.413-1.225-4.807-1.058c-2.337,0.203-3.346,1.237-4.027,2.043
			C551.424,136.598,551.138,137.241,550.617,137.319z"/>
	</g>
	<g>
		<path fill="#31353E" d="M594.382,131.005c-0.307,0.04-0.619-0.101-0.921-0.445l0.39,0.612c-0.61-0.018-1.464-0.522-2.171-1.057
			c-0.807-0.559-1.009-0.644-1.933-0.57c-1.294,0.181-2.343,1.106-3.223,1.617c-0.868,0.536-1.526,0.675-1.926,0.36
			c-0.392-0.309-0.5-0.953-0.056-2.016c0.231-0.528,0.609-1.179,1.311-1.882c0.686-0.684,1.827-1.473,3.382-1.695
			c1.08-0.16,2.196,0.03,3.065,0.514c0.888,0.497,1.34,1.102,1.638,1.527c0.577,0.885,0.703,1.336,0.831,1.757l0.39,0.613
			C594.955,130.75,594.689,130.966,594.382,131.005z"/>
	</g>
	<g>
		<path fill="#31353E" d="M541.751,118.812c-0.411-0.215-0.497-1.274,0.646-2.947c1.119-1.669,3.696-3.588,7.451-4.843
			c1.869-0.631,3.441-1.063,4.941-1.296c1.478-0.229,2.798-0.177,3.807,0.074c1.015,0.261,1.693,0.686,2.047,1.069
			c0.356,0.389,0.421,0.704,0.303,0.922c-0.263,0.469-1.103,0.392-2.57,0.583c-0.747,0.106-1.682,0.288-2.885,0.644
			c-1.181,0.348-2.723,0.871-4.444,1.454c-3.44,1.17-5.504,2.328-6.815,3.21C542.925,118.558,542.216,119.074,541.751,118.812z"/>
	</g>
	<g>
		<path fill="#31353E" d="M598.067,111.332c-0.285,0.415-1.065,0.434-2.38-0.069c-0.657-0.251-1.448-0.633-2.378-1.16
			c-0.943-0.523-1.983-1.242-3.056-1.773c-2.031-0.988-3.928-0.84-5.233-0.967c-1.31-0.082-2.047-0.315-2.182-0.81
			c-0.131-0.476,0.334-1.123,1.709-1.729c0.691-0.293,1.62-0.575,2.856-0.662c1.207-0.083,2.852,0.084,4.452,0.886
			c1.563,0.789,2.534,1.626,3.36,2.282c0.825,0.679,1.465,1.281,1.935,1.805C598.09,110.182,598.353,110.916,598.067,111.332z"/>
	</g>
	<path fill="#EB545D" d="M575.064,151.101c-8.429,2.306-16.174,6.634-24.511,9.251c-3.777,1.186-7.666,2.015-11.597,2.475
		c-2.23,0.261-4.673,0.491-6.265,2.074c-0.997,0.992-1.495,2.372-1.874,3.727c-3.728,13.308,2.053,28.714,13.615,36.286
		c7.427,4.864,16.551,6.521,25.428,6.591c6.63,0.053,13.783-0.947,18.593-5.509c4.736-4.492,6.136-11.375,7.297-17.798
		c1.113-6.162,2.227-12.325,3.34-18.487c0.724-4.006,2.426-9.159,1.058-13.225C597.098,147.42,582.004,149.202,575.064,151.101z"/>
	<g>
		<path fill="#EB545D" d="M514.434,150.347c0.216,0.035,0.342,0.321,0.569,0.717c0.228,0.398,0.587,0.903,1.325,1.527
			c0.365,0.312,0.823,0.649,1.374,1.018c0.552,0.364,1.238,0.822,1.941,1.314c1.425,0.993,3.085,2.208,4.99,3.663
			c1.906,1.456,3.515,2.737,4.847,3.851c1.352,1.145,2.309,1.991,3.14,2.519c1.603,1.068,2.577,0.964,2.708,1.412
			c0.05,0.187-0.151,0.48-0.764,0.695c-0.602,0.207-1.647,0.242-2.849-0.186c-1.206-0.4-2.528-1.263-3.915-2.241
			c-1.425-0.993-3.084-2.208-4.99-3.664c-1.906-1.456-3.514-2.737-4.847-3.851c-0.674-0.565-1.247-1.053-1.812-1.564
			c-0.56-0.514-1.04-1.032-1.412-1.557c-0.762-1.036-1.015-2.125-0.896-2.79C513.954,150.539,514.248,150.312,514.434,150.347z"/>
	</g>
	<g>
		<path fill="#EB545D" d="M511.261,181.699c0.085-0.419,0.955-0.596,2.71-0.611c1.757-0.027,4.407,0.121,8.108,0.033
			c3.701-0.116,6.338-0.409,8.094-0.478c1.754-0.081,2.632,0.048,2.739,0.462c0.102,0.389-0.595,0.99-2.32,1.62
			c-1.721,0.617-4.49,1.275-8.431,1.398c-3.942,0.093-6.743-0.412-8.495-0.934C511.909,182.655,511.18,182.093,511.261,181.699z"/>
	</g>
	<path fill="#31353E" d="M606.778,101.154c-4.166,0.943-8.766-0.32-11.867-3.256c0.177,2.173-2.304,3.795-4.474,3.586
		c-2.17-0.209-4.002-1.635-5.699-3.004c-3.376-2.724-6.753-5.448-10.129-8.172c-0.572-0.461-1.305-0.95-1.984-0.669
		c-0.683,0.282-0.855,1.157-0.894,1.895c-0.128,2.405,0.116,4.894-0.718,7.153c-0.835,2.259-3.264,4.199-5.547,3.435
		c-0.845-0.283-1.538-0.886-2.206-1.476c-2.457-2.166-4.913-4.331-7.37-6.497c-0.719-0.634-1.465-1.283-2.378-1.577
		c-1.173-0.377-2.445-0.113-3.642,0.177c-3.523,0.853-6.995,1.914-10.394,3.174c-1.463,0.543-2.957,1.151-4.06,2.256
		c-1.042,1.044-1.643,2.44-2.156,3.823c-1.548,4.167-2.523,8.547-2.888,12.978c-0.204,2.474-0.287,5.152-1.831,7.095
		c-1.928,2.425-5.72,2.803-8.459,1.355c5.043,6.541,5.214,16.408,0.402,23.121c-0.807,1.125-1.838,2.226-3.198,2.488
		c-2.114,0.407-3.998-1.325-5.345-3.004c-3.728-4.649-6.59-10.604-5.37-16.437c0.445-2.126,1.407-4.104,2.367-6.053
		c4.35-8.833,8.932-17.749,15.797-24.806c8.22-8.45,19.456-13.771,31.137-15.36c10.253-1.394,21.856-0.26,31.356,4.039
		C594.521,90.715,603.355,93.126,606.778,101.154z"/>
	<path fill="#EB545D" d="M492.875,135.639c-0.604-0.225-1.243-0.476-1.624-0.996c-0.325-0.445-0.409-1.017-0.464-1.565
		c-0.513-5.129,0.603-10.272,1.873-15.267c2.954-11.615,6.897-23.235,14.11-32.806c7.915-10.503,19.448-17.972,31.893-22.227
		s25.786-5.432,38.925-4.841c4.997,0.225,10.475,0.931,13.859,4.615c3.319,3.612,3.622,9.018,3.33,13.915
		c-0.255,4.263-0.823,8.508-1.699,12.688c-0.105,0.499-0.227,1.023-0.574,1.397c-0.565,0.609-1.509,0.615-2.34,0.587
		c-12.382-0.42-24.838,1.426-36.566,5.419c-4.382,1.492-8.707,3.305-12.456,6.02c-3.868,2.801-7.004,6.474-10.1,10.109
		c-5.165,6.064-10.403,12.242-13.609,19.534c-1.087,2.472-1.966,5.112-3.757,7.133C508.743,144.923,498.417,137.704,492.875,135.639
		z"/>
	<g>
		<path fill="#31353E" d="M647.351,498.499c0.125,0.219-0.849,1.014-3.042,2.437c-1.108,0.688-2.555,1.469-4.325,2.401
			c-1.805,0.853-3.932,1.868-6.486,2.815c-5.083,1.916-11.773,3.93-20.239,4.861c-4.223,0.484-8.885,0.726-13.94,0.456
			c-5.051-0.252-10.502-0.951-16.229-2.356c-5.73-1.404-10.836-3.274-15.491-5.053c-4.611-1.819-8.851-3.492-12.733-5.024
			c-7.727-3.003-14.135-4.959-19.304-5.906c-10.371-1.79-15.322-0.469-15.415-1.183c-0.046-0.247,1.138-0.654,3.717-1.227
			c2.583-0.364,6.632-0.836,12.087-0.142c5.447,0.652,12.194,2.435,20.092,5.307c3.956,1.423,8.201,3.105,12.822,4.83
			c4.621,1.715,9.612,3.51,15.094,4.852c5.482,1.344,10.701,2.04,15.548,2.33c4.85,0.308,9.333,0.145,13.409-0.231
			c8.17-0.714,14.694-2.401,19.735-3.953c2.532-0.765,4.669-1.588,6.51-2.244c1.815-0.725,3.312-1.323,4.5-1.798
			C646.016,498.657,647.226,498.281,647.351,498.499z"/>
	</g>
	<g>
		<path fill="#31353E" d="M568.497,469.05c0.056-0.245,0.801-0.329,2.288-0.272c1.486,0.058,3.721,0.235,6.764,0.438
			c1.519,0.116,3.244,0.207,5.174,0.315c1.93,0.101,4.069,0.188,6.422,0.254c4.705,0.116,10.265,0.132,16.709-0.152
			c6.443-0.289,11.935-0.77,16.552-1.168c4.595-0.394,8.161-0.812,10.968-1.179c1.412-0.176,2.634-0.328,3.673-0.458
			c1.056-0.115,1.956-0.18,2.711-0.184c1.515,0.007,2.482,0.3,2.882,1.01c0.385,0.682,0.15,1.731-1,2.989
			c-0.571,0.634-1.376,1.306-2.429,1.977c-1.052,0.671-2.357,1.345-3.913,1.939c-3.106,1.213-7.223,2.11-12.12,2.539
			c-4.874,0.436-10.669,0.561-17.398,0.151c-6.726-0.415-12.439-1.244-17.208-2.126c-2.384-0.45-4.534-0.913-6.461-1.372
			c-1.925-0.467-3.633-0.899-5.124-1.337c-2.987-0.848-5.133-1.589-6.521-2.161C569.077,469.682,568.441,469.296,568.497,469.05z"/>
	</g>
	<g>
		<path fill="#31353E" d="M513.818,453.387c-0.146-0.463,0.497-1.193,2.212-2.019c1.709-0.801,4.532-1.728,8.633-1.902
			c4.103-0.133,7.02,0.629,8.737,1.486c1.73,0.873,2.3,1.84,2.063,2.561c-0.247,0.755-1.225,1.129-2.965,1.141
			c-1.747,0.031-4.265-0.333-7.861-0.55c-3.599-0.179-6.223-0.042-7.987-0.057C514.886,454.039,513.973,453.884,513.818,453.387z"/>
	</g>
</g>
</svg>
